# xmcd
#
# Track frame offsets:
#	150
#	17010
#	34555
#
# Disc length: 767 seconds
#
# Revision: 0
# Processed by: cddbd v1.5.1PL2 Copyright (c) Steve Scherf et al.
# Submitted via: audiograbber 1.83.01
#
DISCID=1602fd03
DTITLE=Alexander O'Neal - You're Gonna Miss Me
DYEAR=2002
DGENRE=R&B
TTITLE0=You're Gonna Miss Me
TTITLE1=if don't Matter
TTITLE2=my Baby's Gone
EXTD=
EXTT0=
EXTT1=
EXTT2=
PLAYORDER=
